Coordinates
version=1
nRows=9
nColumns=63
inDegrees=yes

Units are S.I. units (second, meters, Newtons, ...)
If the header above contains a line with 'inDegrees', this indicates whether rotational values are in degrees (yes) or radians (no).

endheader
time	pelvis_tilt	pelvis_list	pelvis_rotation	pelvis_tx	pelvis_ty	pelvis_tz	hip_flexion_r	hip_adduction_r	hip_rotation_r	knee_angle_r	knee_angle_r_beta	ankle_angle_r	subtalar_angle_r	mtp_angle_r	hip_flexion_l	hip_adduction_l	hip_rotation_l	knee_angle_l	knee_angle_l_beta	ankle_angle_l	subtalar_angle_l	mtp_angle_l	L5_S1_Flex_Ext	L5_S1_Lat_Bending	L5_S1_axial_rotation	L4_L5_Flex_Ext	L4_L5_Lat_Bending	L4_L5_axial_rotation	L3_L4_Flex_Ext	L3_L4_Lat_Bending	L3_L4_axial_rotation	L2_L3_Flex_Ext	L2_L3_Lat_Bending	L2_L3_axial_rotation	L1_L2_Flex_Ext	L1_L2_Lat_Bending	L1_L2_axial_rotation	L1_T12_Flex_Ext	L1_T12_Lat_Bending	L1_T12_axial_rotation	Abs_r3	Abs_r2	Abs_r1	Abs_t1	Abs_t2	neck_flexion	neck_bending	neck_rotation	arm_flex_r	arm_add_r	arm_rot_r	elbow_flex_r	pro_sup_r	wrist_flex_r	wrist_dev_r	arm_flex_l	arm_add_l	arm_rot_l	elbow_flex_l	pro_sup_l	wrist_flex_l	wrist_dev_l
      2.22727273	      0.20444734	     -2.85229903	     93.11279076	      0.28740102	      0.83254030	      0.56560360	     -0.91191283	     -1.42859036	      6.08560024	      2.18487660	      0.03813329	     27.10721761	     -6.27456135	      0.00000000	      0.37210044	      0.66011272	     20.41662418	      3.24900791	      0.05670589	     25.71530673	    -14.15993552	      0.00000000	      0.15018021	      0.09312982	     -0.38815394	      0.27889967	      0.12386266	     -0.41241356	      0.24673107	      0.22643584	     -0.41241356	      0.17164096	      0.22643584	     -0.33963469	      0.13945734	      0.18991032	     -0.31537507	      0.08581297	      0.14425809	     -0.29111545	      1.07272223	      1.05350312	     -2.15879575	      0.00000000	      0.00000000	     24.76187852	      2.48393080	      7.65616414	     12.83765657	    -12.75831271	     72.33063620	     43.61253499	     59.32176424	      6.61513095	      2.34592526	      8.48190020	    -10.25160989	     50.84177422	     49.61621393	     66.51793212	     11.20023646	      3.96869397
      2.25000000	      0.20768491	     -2.88238571	     92.78209885	      0.28801863	      0.83243993	      0.56566989	     -0.86744976	     -1.37271649	      8.02527159	      2.21255994	      0.03861646	     26.52034726	     -8.51060971	      0.00000000	      0.34014223	      0.65042760	     20.78161294	      3.28617981	      0.05735466	     25.23963285	    -15.24808518	      0.00000000	      0.15618562	      0.09791253	     -0.37156439	      0.29005231	      0.13022366	     -0.39478716	      0.25659735	      0.23806452	     -0.39478716	      0.17850454	      0.23806452	     -0.32511884	      0.14503397	      0.19966323	     -0.30189607	      0.08924446	      0.15166651	     -0.27867329	      1.11561825	      1.10760609	     -2.06652966	      0.00000000	      0.00000000	     24.43185547	      3.13262031	      9.78532608	     12.79405077	    -12.73470970	     72.06837886	     43.75763706	     60.31691691	      6.37367597	      2.70711755	      8.21713088	    -10.26566333	     50.26203765	     49.64306496	     66.66064863	     11.69116508	      4.73572093
      2.27272727	      0.13588104	     -2.80013396	     92.46406115	      0.28863214	      0.83258045	      0.56618168	     -0.85328465	     -1.46257134	      6.96482874	      2.39152040	      0.04173991	     26.95338030	     -6.39188043	      0.00000000	      0.31507721	      0.69950919	     19.55214503	      3.49693659	      0.06103306	     25.43417652	    -13.99882932	      0.00000000	      0.14306891	      0.08944098	     -0.28174188	      0.26569327	      0.11895651	     -0.29935075	      0.23504791	      0.21746681	     -0.29935075	      0.16351345	      0.21746681	     -0.24652415	      0.13285379	      0.18238805	     -0.22891528	      0.08174957	      0.13854408	     -0.21130641	      1.02192689	      1.01177430	     -1.56696383	      0.00000000	      0.00000000	     24.17985028	      3.50713018	     11.18341586	     12.82882206	    -12.78938065	     72.23035012	     43.91013852	     58.59895965	      6.00515492	      3.08316482	      8.56245074	    -10.39784278	     51.21404522	     49.57012238	     65.07142920	     11.53196679	      5.46287117
      2.29545455	      0.10872371	     -2.87926848	     92.38227175	      0.28869125	      0.83239527	      0.56643956	     -0.71328205	     -1.47223646	      7.76990415	      2.56475910	      0.04476349	     26.82698838	     -7.30579943	      0.00000000	      0.33435988	      0.73802427	     20.60566853	      3.36236911	      0.05868441	     24.83311092	    -15.56126708	      0.00000000	      0.16088248	      0.09708552	     -0.31816851	      0.29877485	      0.12912374	     -0.33805404	      0.26431383	      0.23605374	     -0.33805404	      0.18387259	      0.23605374	     -0.27839744	      0.14939547	      0.19797680	     -0.25851191	      0.09192825	      0.15038547	     -0.23862638	      1.14916747	      1.09825084	     -1.76955779	      0.00000000	      0.00000000	     23.78934380	      4.62026545	     14.08080387	     13.10804225	    -12.72677912	     72.83929652	     43.70006807	     59.54927648	      6.21248507	      2.72432810	      8.06687752	    -10.25243339	     49.86149825	     49.52418701	     66.07848511	     12.63437183	      6.13423946
      2.31818182	      0.00659367	     -2.92020484	     92.39647579	      0.28867516	      0.83229357	      0.56690696	     -0.64562196	     -1.56726334	      8.04554784	      2.61608376	      0.04565928	     26.84460463	     -7.69524193	      0.00000000	      0.42300999	      0.85066483	     20.82702674	      3.33547088	      0.05821495	     24.78895684	    -15.79490189	      0.00000000	      0.17095294	      0.09000793	     -0.29048628	      0.31747670	      0.11971055	     -0.30864167	      0.28085858	      0.21884529	     -0.30864167	      0.19538211	      0.21884529	     -0.25417549	      0.15874690	      0.18354418	     -0.23602010	      0.09768251	      0.13942229	     -0.21786471	      1.22109975	      1.01818776	     -1.61559753	      0.00000000	      0.00000000	     23.59267907	      5.13498812	     15.50701302	     13.00896769	    -12.76572260	     72.58502131	     43.73364701	     59.43150011	      6.20086687	      2.76112795	      8.39104858	    -10.37746382	     50.93924578	     49.44571038	     64.29984626	     12.37614816	      6.50623382
      2.34090909	     -0.07973912	     -2.95284453	     92.30101191	      0.28879497	      0.83232452	      0.56743877	     -0.52357189	     -1.66682986	      7.75293279	      2.68339105	      0.04683401	     27.05568182	     -7.20774639	      0.00000000	      0.51295574	      0.93860013	     20.54131466	      3.29749421	      0.05755213	     25.10793702	    -15.34490601	      0.00000000	      0.17443780	      0.08760062	     -0.27517027	      0.32394844	      0.11650882	     -0.29236841	      0.28658386	      0.21299214	     -0.29236841	      0.19936496	      0.21299214	     -0.24077399	      0.16198294	      0.17863518	     -0.22357584	      0.09967376	      0.13569336	     -0.20637770	      1.24599175	      0.99095570	     -1.53041448	      0.00000000	      0.00000000	     23.43533136	      5.46573474	     16.73083214	     13.12083268	    -12.71368777	     72.72657049	     43.56210505	     59.50965496	      6.34969500	      2.66324697	      8.40930107	    -10.37551073	     50.97915811	     49.42091345	     63.96575458	     12.29403202	      6.70927074
      2.36363636	     -0.19732784	     -2.98819425	     92.16098769	      0.28900882	      0.83234346	      0.56785533	     -0.41303027	     -1.80113545	      7.56360750	      2.66837135	      0.04657187	     27.22859098	     -6.89477267	      0.00000000	      0.58517047	      1.05788235	     20.33995382	      3.23859845	      0.05652421	     25.42909521	    -14.94330056	      0.00000000	      0.17702491	      0.07761409	     -0.23277292	      0.32875296	      0.10322674	     -0.24732123	      0.29083422	      0.18871091	     -0.24732123	      0.20232177	      0.18871091	     -0.20367631	      0.16438533	      0.15827066	     -0.18912800	      0.10115203	      0.12022423	     -0.17457969	      1.26447122	      0.87798615	     -1.29461316	      0.00000000	      0.00000000	     23.45819841	      5.39288547	     17.00202476	     13.24020436	    -12.66712612	     72.96196273	     43.45293593	     59.18724192	      6.29746120	      2.71275347	      8.53256507	    -10.43195798	     51.28319088	     49.50185341	     63.55889353	     11.92327636	      6.82269878
      2.38636364	     -0.30195249	     -3.05863072	     92.01141969	      0.28923181	      0.83233728	      0.56813920	     -0.24731680	     -1.92769333	      7.25080754	      2.69011030	      0.04695128	     27.47930886	     -6.38138921	      0.00000000	      0.67742252	      1.16451974	     20.03501569	      3.19148156	      0.05570186	     25.66957977	    -14.46049623	      0.00000000	      0.18306696	      0.06934236	     -0.21891058	      0.33997366	      0.09222534	     -0.23259249	      0.30076072	      0.16859902	     -0.23259249	      0.20922723	      0.16859902	     -0.19154675	      0.16999598	      0.14140295	     -0.17786484	      0.10460446	      0.10741132	     -0.16418293	      1.30762902	      0.78441469	     -1.21751495	      0.00000000	      0.00000000	     23.47052349	      5.36582721	     17.00299661	     13.75435502	    -12.54438365	     74.33773802	     43.05578228	     58.44589474	      6.45630074	      2.01595054	      8.59896935	    -10.52112672	     51.48815624	     49.61239043	     63.17572611	     11.52031533	      6.61808181
      2.40909091	     -0.37058940	     -3.09229572	     91.85780123	      0.28949845	      0.83239849	      0.56840721	     -0.10509476	     -2.04224289	      5.96536860	      2.74320360	      0.04787793	     28.04540891	     -4.43639704	      0.00000000	      0.76379702	      1.23452783	     19.19703065	      3.24283563	      0.05659816	     25.89380591	    -13.44386156	      0.00000000	      0.17888715	      0.05859381	     -0.18744085	      0.33221133	      0.07792976	     -0.19915590	      0.29389370	      0.14246498	     -0.19915590	      0.20445013	      0.14246498	     -0.16401074	      0.16611461	      0.11948449	     -0.15229569	      0.10221612	      0.09076180	     -0.14058064	      1.27777304	      0.66282484	     -1.04248976	      0.00000000	      0.00000000	     23.53651574	      4.88465825	     15.63024373	     14.25700569	    -12.38472458	     75.67314553	     42.57015581	     57.31721539	      6.89350006	      1.21268524	      8.73803493	    -10.53981038	     51.60268026	     49.52329264	     63.46452514	     11.51771421	      5.97234235
